<?xml version="1.0" encoding="UTF-8"?>
<svg width="378px" height="420px" viewBox="0 0 378 420" version="1.1" xmlns="http://www.w3.org/2000/svg" xmlns:xlink="http://www.w3.org/1999/xlink">

  <defs>
    <linearGradient id="gradient" x1="-.818%" y1="52.397%" x2="100.818%" y2="47.603%">
      <stop stop-color="#8200ff" offset="0%"></stop>
      <stop stop-color="#00bcc3" offset="100%"></stop>
    </linearGradient>
  </defs>

  <path fill="url(#gradient)" d="M149.65 10.63L37.956 76.33A76.993 76.993 0 000 142.692v133.913a76.993 76.993 0 0037.955 66.361l111.696 65.703a76.946 76.946 0 0038.696 10.629h.68a76.94 76.94 0 0038.694-10.63l111.697-65.702a76.993 76.993 0 0037.955-66.36V142.691a76.993 76.993 0 00-37.955-66.36L227.721 10.628A76.935 76.935 0 00188.686 0a76.945 76.945 0 00-39.035 10.63"></path>

  <path fill="#fff" d="M337.075 161.586a5.15 5.15 0 00-.671-2.551 5.187 5.187 0 00-7.083-1.9v-.003l-93.543 53.943c-20.354 13.51-33.862 36.037-33.88 57.402v70.681c-.001 3.559 1.229 6.894 2.887 9.77 3.384 5.87 9.715 9.829 16.96 9.838 4.46-.004 7.272-.799 11.566-3.274l60.95-35.165c36.729-20.916 41.521-28.504 42.733-67.546l.104-91.181-.023-.014zm-207.692 32.733l-59.991-34.666a19.076 19.076 0 00-9.574-2.571c-6.643 0-13.105 3.438-16.659 9.588-2.182 3.789-2.884 6.567-2.884 11.427v73.99c.173 37.096 5.245 45.073 36.444 64.378l77.38 44.743.02-.012a5.04 5.04 0 002.495.68 5.087 5.087 0 005.084-5.086v-.002l.004-105.871c-1.504-23.905-14.186-46.121-32.32-56.598zm164.233-61.239a19.56 19.56 0 007.15-7.201c3.375-5.902 3.604-13.393-.053-19.677-2.257-3.865-4.368-5.9-8.686-8.37l-60.813-35.045c-36.702-21.26-46.093-21.306-80.538-2.612l-79.167 45.738v.027a5.142 5.142 0 00-1.871 1.872 5.205 5.205 0 001.932 7.1l94.054 53.812c22 10.813 48.18 10.834 66.705.044l61.287-35.688z"></path>


</svg>
